<?xml version="1.0" standalone="no"?>
<!DOCTYPE svg PUBLIC "-//W3C//DTD SVG 20010904//EN"
 "http://www.w3.org/TR/2001/REC-SVG-20010904/DTD/svg10.dtd">
<svg version="1.0" xmlns="http://www.w3.org/2000/svg"
 width="361.000000pt" height="289.000000pt" viewBox="0 0 361.000000 289.000000"
 preserveAspectRatio="xMidYMid meet">

<g transform="translate(0.000000,289.000000) scale(0.100000,-0.100000)"
fill="#000000" stroke="none">
<path d="M3145 2700 c-175 -27 -362 -121 -730 -365 -212 -140 -412 -286 -483
-353 -43 -39 -48 -62 -15 -62 9 0 126 77 260 171 586 411 921 582 1067 545 53
-13 71 -112 42 -223 -76 -286 -385 -838 -871 -1559 -176 -260 -195 -292 -195
-324 0 -69 70 20 345 435 422 637 664 1063 756 1335 29 85 33 107 33 210 1 97
-2 119 -18 143 -10 15 -26 32 -35 36 -26 14 -102 20 -156 11z"/>
<path d="M3058 2553 c-19 -21 -84 -101 -144 -178 -774 -1000 -1660 -1693
-2622 -2050 -152 -57 -196 -79 -189 -98 7 -23 49 -18 160 19 315 104 774 334
1092 547 441 294 951 756 1350 1222 208 242 405 502 420 553 10 36 -26 28 -67
-15z"/>
</g>
</svg>
