<?xml version="1.0" standalone="no"?>
<!DOCTYPE svg PUBLIC "-//W3C//DTD SVG 20010904//EN"
 "http://www.w3.org/TR/2001/REC-SVG-20010904/DTD/svg10.dtd">
<svg version="1.0" xmlns="http://www.w3.org/2000/svg"
 width="41.000000pt" height="16.000000pt" viewBox="0 0 41.000000 16.000000"
 preserveAspectRatio="xMidYMid meet">

<g transform="translate(0.000000,16.000000) scale(0.100000,-0.100000)"
fill="#000000" stroke="none">
<path d="M9 155 c-1 0 -2 -34 -3 -75 l-2 -75 201 0 201 0 -1 75 0 75 -198 0
c-108 0 -198 0 -198 0z m386 -75 l0 -65 -190 0 -190 0 0 65 -1 65 191 0 191 0
-1 -65z"/>
<path d="M29 135 c-1 0 -2 -25 -3 -55 l-2 -55 181 0 181 0 -1 55 0 55 -178 0
c-97 0 -178 0 -178 0z m346 -55 l-1 -45 -169 0 -169 0 -1 45 -1 45 171 0 171
0 -1 -45z"/>
<path d="M49 115 c-1 0 -2 -16 -3 -35 l-2 -35 161 0 161 0 -1 35 -1 35 -157 0
c-86 0 -157 0 -158 0z m306 -35 l-1 -25 -149 0 -149 0 -1 25 -2 25 152 0 152
0 -2 -25z"/>
<path d="M69 95 c0 0 -2 -7 -4 -15 -2 -13 18 -15 140 -15 121 0 142 2 140 15
-2 12 -25 15 -138 15 -76 0 -137 0 -138 0z m265 -15 c-7 -7 -255 -7 -259 0 -2
3 57 5 130 5 74 0 131 -2 129 -5z"/>
</g>
</svg>
